<mxfile host="Electron" agent="Mozilla/5.0 (Windows NT 10.0; Win64; x64) AppleWebKit/537.36 (KHTML, like Gecko) draw.io/24.7.8 Chrome/128.0.6613.36 Electron/32.0.1 Safari/537.36" version="24.7.8">
  <diagram name="Page-1" id="1iqvVAaeZzzIvcGJswWg">
    <mxGraphModel dx="701" dy="808" grid="1" gridSize="10" guides="1" tooltips="1" connect="1" arrows="1" fold="1" page="1" pageScale="1" pageWidth="850" pageHeight="1100" math="0" shadow="0">
      <root>
        <mxCell id="0" />
        <mxCell id="1" parent="0" />
        <mxCell id="O1OYy-Wl44cRrzJyn79Y-1" value="end" style="rounded=1;whiteSpace=wrap;html=1;" vertex="1" parent="1">
          <mxGeometry x="140" y="670" width="120" height="60" as="geometry" />
        </mxCell>
        <mxCell id="O1OYy-Wl44cRrzJyn79Y-9" value="" style="edgeStyle=orthogonalEdgeStyle;rounded=0;orthogonalLoop=1;jettySize=auto;html=1;" edge="1" parent="1" source="O1OYy-Wl44cRrzJyn79Y-2" target="O1OYy-Wl44cRrzJyn79Y-4">
          <mxGeometry relative="1" as="geometry" />
        </mxCell>
        <mxCell id="O1OYy-Wl44cRrzJyn79Y-2" value="start" style="rounded=1;whiteSpace=wrap;html=1;" vertex="1" parent="1">
          <mxGeometry x="140" y="10" width="120" height="60" as="geometry" />
        </mxCell>
        <mxCell id="O1OYy-Wl44cRrzJyn79Y-10" value="" style="edgeStyle=orthogonalEdgeStyle;rounded=0;orthogonalLoop=1;jettySize=auto;html=1;" edge="1" parent="1" source="O1OYy-Wl44cRrzJyn79Y-4" target="O1OYy-Wl44cRrzJyn79Y-6">
          <mxGeometry relative="1" as="geometry" />
        </mxCell>
        <mxCell id="O1OYy-Wl44cRrzJyn79Y-4" value="x (int)&lt;div&gt;&quot;First float num&quot;&lt;/div&gt;" style="shape=card;whiteSpace=wrap;html=1;" vertex="1" parent="1">
          <mxGeometry x="75" y="130" width="250" height="80" as="geometry" />
        </mxCell>
        <mxCell id="O1OYy-Wl44cRrzJyn79Y-11" value="" style="edgeStyle=orthogonalEdgeStyle;rounded=0;orthogonalLoop=1;jettySize=auto;html=1;" edge="1" parent="1" source="O1OYy-Wl44cRrzJyn79Y-6" target="O1OYy-Wl44cRrzJyn79Y-7">
          <mxGeometry relative="1" as="geometry" />
        </mxCell>
        <mxCell id="O1OYy-Wl44cRrzJyn79Y-6" value="y (iny)&lt;div&gt;&quot;Second float num&quot;&lt;/div&gt;" style="shape=card;whiteSpace=wrap;html=1;" vertex="1" parent="1">
          <mxGeometry x="75" y="280" width="250" height="80" as="geometry" />
        </mxCell>
        <mxCell id="O1OYy-Wl44cRrzJyn79Y-12" value="" style="edgeStyle=orthogonalEdgeStyle;rounded=0;orthogonalLoop=1;jettySize=auto;html=1;" edge="1" parent="1" source="O1OYy-Wl44cRrzJyn79Y-7" target="O1OYy-Wl44cRrzJyn79Y-8">
          <mxGeometry relative="1" as="geometry" />
        </mxCell>
        <mxCell id="O1OYy-Wl44cRrzJyn79Y-7" value="diff (float)&lt;div&gt;x - y&lt;/div&gt;" style="rounded=0;whiteSpace=wrap;html=1;" vertex="1" parent="1">
          <mxGeometry x="95" y="410" width="210" height="70" as="geometry" />
        </mxCell>
        <mxCell id="O1OYy-Wl44cRrzJyn79Y-13" value="" style="edgeStyle=orthogonalEdgeStyle;rounded=0;orthogonalLoop=1;jettySize=auto;html=1;" edge="1" parent="1" source="O1OYy-Wl44cRrzJyn79Y-8" target="O1OYy-Wl44cRrzJyn79Y-1">
          <mxGeometry relative="1" as="geometry" />
        </mxCell>
        <mxCell id="O1OYy-Wl44cRrzJyn79Y-8" value="&quot;Your difference between your numbers is: &quot; diff" style="shape=document;whiteSpace=wrap;html=1;boundedLbl=1;" vertex="1" parent="1">
          <mxGeometry x="92.5" y="530" width="215" height="100" as="geometry" />
        </mxCell>
      </root>
    </mxGraphModel>
  </diagram>
</mxfile>
